<svg width="1024" height="1024" viewBox="0 0 1024 1024" fill="none" xmlns="http://www.w3.org/2000/svg">
<g clip-path="url(#clip0_10_946)">
<rect width="1024" height="1024" rx="227.635" fill="white"/>
<g clip-path="url(#clip1_10_946)">
<rect width="1024" height="1024" fill="white"/>
<rect width="1024" height="1024" fill="white"/>
<rect width="1024" height="1024" fill="#4000FF"/>
<path fill-rule="evenodd" clip-rule="evenodd" d="M507.717 237.439C473.1 237.439 445.882 264.597 445.882 297.075C445.882 311.003 434.492 322.294 420.441 322.294C406.39 322.294 395 311.003 395 297.075C395 235.824 445.932 187 507.717 187C569.502 187 620.434 235.824 620.434 297.075C620.434 329.5 605.474 351.347 588.989 368.476C582.906 374.797 576.05 381.033 569.769 386.746C568.044 388.316 566.361 389.846 564.751 391.328C558.824 396.779 553.296 402.064 548.204 407.647C551.669 414.286 558.892 424.021 570.484 436.744C593.339 461.829 628.452 493.475 668.985 527.597C709.319 561.552 754.171 597.256 796.076 630.405C801.888 635.003 807.649 639.555 813.335 644.049C848.46 671.808 880.752 697.327 904.93 717.476C915.685 726.439 917.074 742.348 908.032 753.009C898.99 763.67 882.942 765.047 872.187 756.084C848.562 736.396 816.887 711.363 781.683 683.541C775.988 679.04 770.2 674.465 764.338 669.829C722.438 636.684 677.038 600.55 636.048 566.042C595.255 531.701 557.968 498.259 532.723 470.551C520.27 456.883 509.518 443.298 503.001 430.802C499.751 424.572 496.749 417.115 495.923 409.058C495.044 400.477 496.623 390.226 503.871 381.418C512.542 370.879 521.816 362.012 530.142 354.354C532.251 352.414 534.257 350.588 536.175 348.842C542.204 343.354 547.369 338.652 552.173 333.66C563.865 321.511 569.552 311.514 569.552 297.075C569.552 264.597 542.334 237.439 507.717 237.439Z" fill="white"/>
<path fill-rule="evenodd" clip-rule="evenodd" d="M450.905 465.687C459.895 476.224 458.815 492.207 448.493 501.385L160.064 755.777C149.742 764.955 134.086 763.853 125.095 753.315C116.105 742.778 117.185 726.795 127.507 717.617L415.936 463.225C426.258 454.047 441.914 455.149 450.905 465.687Z" fill="white"/>
<path fill-rule="evenodd" clip-rule="evenodd" d="M241 633H792V681H241V633Z" fill="white"/>
</g>
</g>
<defs>
<clipPath id="clip1_10_946">
<rect width="1024" height="1024" fill="transparent"/>
</clipPath>
</defs>
</svg>
